<svg width="51" height="42" viewBox="0 0 51 42" fill="none" xmlns="http://www.w3.org/2000/svg">
<path d="M26.297 0.243831C25.4802 0.453011 24.5837 1.08055 24.255 1.67821C24.1355 1.89735 24.0757 2.32567 24.0359 3.17235L23.9861 4.3577L23.6873 4.52703C23.4083 4.68641 23.3884 4.73621 23.3984 5.23426C23.4083 5.87176 23.7171 6.5491 24.1455 6.91766C24.3347 7.07703 24.524 7.40574 24.6833 7.84403C25.0917 9.01942 25.8189 9.94578 26.5859 10.2645C27.074 10.4737 27.8808 10.4438 28.3789 10.2048C29.1558 9.82625 30.0025 8.65086 30.3013 7.5452C30.371 7.28621 30.5205 7.04715 30.6998 6.92762C31.0882 6.64871 31.4269 5.83192 31.3871 5.25418C31.3572 4.85574 31.3173 4.7661 31.0583 4.62664L30.7595 4.45731L30.6998 3.32176C30.64 2.0368 30.5005 1.64832 29.8431 1.02078C29.2554 0.453011 28.6279 0.223909 27.572 0.184066C27.0839 0.164144 26.5062 0.194026 26.297 0.243831Z" fill="#2E2E2E"/>
<path d="M11.2762 2.1364C10.8478 2.26589 10.2203 2.73406 9.95136 3.12253C9.59276 3.6405 9.49315 4.03894 9.49315 5.00515C9.49315 5.7821 9.48319 5.83191 9.25409 5.92156C8.93534 6.04109 8.86562 6.29011 8.99511 6.86784C9.13456 7.4655 9.34374 7.88386 9.59276 8.01335C9.70233 8.07312 9.83183 8.30222 9.90155 8.54128C10.2701 9.91589 11.1766 10.8821 12.2523 11.0614C12.7803 11.1411 13.5672 10.8024 14.0353 10.2844C14.3641 9.91589 15.0713 8.61101 15.0713 8.36198C15.0713 8.30222 15.2107 8.14284 15.3801 8.02331C15.8781 7.65476 16.1969 6.76823 16.0076 6.27019C15.9678 6.18054 15.8383 6.06101 15.7088 6.0112C15.4797 5.93152 15.4697 5.88171 15.4697 5.0948C15.4697 4.08874 15.3103 3.5907 14.8023 2.96316C14.2246 2.26589 13.6568 2.03679 12.4814 2.04675C11.9635 2.04675 11.4156 2.08659 11.2762 2.1364Z" fill="#2E2E2E"/>
<path d="M41.3676 2.32566C40.491 2.5946 39.7041 3.30183 39.4949 4.01902C39.4252 4.2282 39.3754 4.76609 39.3754 5.21433C39.3754 5.97136 39.3654 6.03112 39.1363 6.11081C38.6283 6.31003 38.7578 7.27624 39.3853 7.9237C39.6045 8.1528 39.7738 8.40183 39.7738 8.49148C39.7738 8.77038 40.3217 9.84616 40.6703 10.2446C41.0488 10.6729 41.5867 10.9718 42.1346 11.0614C42.6625 11.1411 43.4494 10.8024 43.9176 10.2844C44.2463 9.91589 44.9535 8.61101 44.9535 8.36198C44.9535 8.30222 45.093 8.14284 45.2623 8.02331C45.7603 7.65476 46.0791 6.76823 45.8898 6.27019C45.85 6.18054 45.7205 6.06101 45.591 6.0112C45.3619 5.93152 45.3519 5.88171 45.3519 5.0948C45.3519 4.59675 45.2922 4.07878 45.1926 3.79987C44.9834 3.19226 44.2363 2.50495 43.6187 2.34558C43.1207 2.22605 41.756 2.21609 41.3676 2.32566Z" fill="#2E2E2E"/>
<path d="M24.9424 11.41L24.5938 11.6191L24.8428 11.8084C24.9723 11.908 25.6098 12.3563 26.2572 12.8045L27.4326 13.6113L28.349 12.9838C28.857 12.6352 29.5045 12.1869 29.8033 11.9777L30.3313 11.6092L29.883 11.39L29.4348 11.1709L29.1061 11.3801C28.9168 11.4896 28.5084 11.659 28.1797 11.7486C27.4426 11.9678 26.7652 11.8881 25.9285 11.4896C25.5898 11.3303 25.301 11.2008 25.301 11.2008C25.291 11.2008 25.1316 11.3004 24.9424 11.41Z" fill="#2E2E2E"/>
<path d="M10.2601 12.1869C10.1107 12.2865 9.96131 12.3862 9.93143 12.416C9.88163 12.4658 10.9076 13.1531 11.9635 13.7807L12.4914 14.0895L13.7066 13.3324C14.374 12.9141 14.9617 12.5356 15.0115 12.4957C15.0514 12.4459 14.9517 12.3364 14.7724 12.2467C14.4637 12.0873 14.4238 12.0873 13.617 12.3563C12.601 12.685 11.8937 12.6551 11.1068 12.2567C10.8279 12.1172 10.5789 11.9977 10.5689 12.0076C10.549 12.0076 10.4195 12.0873 10.2601 12.1869Z" fill="#2E2E2E"/>
<path d="M40.143 12.1869C39.9935 12.2865 39.8441 12.3862 39.8142 12.416C39.7644 12.4658 40.7904 13.1531 41.8463 13.7807L42.3742 14.0895L43.5894 13.3324C44.2568 12.9141 44.8445 12.5356 44.8943 12.4957C44.9342 12.4459 44.8346 12.3364 44.6553 12.2467C44.3465 12.0873 44.3066 12.0873 43.4998 12.3563C42.4838 12.685 41.7765 12.6551 40.9896 12.2567C40.7107 12.1172 40.4617 11.9977 40.4517 12.0076C40.4318 12.0076 40.3023 12.0873 40.143 12.1869Z" fill="#2E2E2E"/>
<path d="M23.04 12.5356C22.791 12.6651 22.1037 12.9639 21.4961 13.203C20.2211 13.701 19.6633 14.1592 19.1752 15.0656C18.8764 15.6235 18.5576 16.6196 18.5576 16.9981C18.5576 17.1674 18.966 17.1774 27.4029 17.1774C32.2738 17.1774 36.2781 17.1475 36.308 17.1176C36.3977 17.028 36.0092 15.7231 35.7303 15.1653C35.4115 14.5477 34.7641 13.8305 34.2959 13.6014C34.1066 13.5018 33.6385 13.3225 33.26 13.203C32.8814 13.0834 32.2639 12.8244 31.8754 12.6352L31.1781 12.2766L30.3215 12.8842C27.5623 14.8067 27.5523 14.8166 27.2535 14.7071C27.0941 14.6573 26.2275 14.0895 25.3111 13.452C24.3947 12.8145 23.6178 12.2965 23.568 12.2965C23.5281 12.3065 23.2891 12.4061 23.04 12.5356Z" fill="#2E2E2E"/>
<path d="M8.14812 13.3823C7.81941 13.5317 7.32136 13.7309 7.04245 13.8305C5.86706 14.219 5.18972 14.9262 4.8112 16.1614C4.45261 17.2969 3.73542 17.1774 10.728 17.1774H16.844L16.9137 16.6993C17.0034 16.0817 17.4118 14.8466 17.7106 14.3087L17.9497 13.8803L17.7305 13.7907C17.611 13.7409 17.1827 13.5616 16.7842 13.3923L16.0471 13.0835L15.3399 13.5716C14.0948 14.4182 12.7301 15.1852 12.4612 15.1852C12.1923 15.1852 10.3096 14.1094 9.38327 13.4321C9.12429 13.2428 8.87527 13.0934 8.83542 13.1034C8.78562 13.1034 8.47683 13.2329 8.14812 13.3823Z" fill="#2E2E2E"/>
<path d="M38.4787 13.193C38.399 13.2428 38.0205 13.4121 37.632 13.5615C37.2535 13.711 36.9248 13.8405 36.9049 13.8405C36.8949 13.8504 37.0144 14.1492 37.1838 14.5078C37.3531 14.8664 37.5822 15.5537 37.6918 16.0418C37.8113 16.5299 37.9209 16.9881 37.9408 17.0479C37.9707 17.1475 39.2855 17.1774 44.1066 17.1774H50.2426L50.1728 16.7989C49.9935 15.7828 49.356 14.6373 48.7883 14.2887C48.609 14.1791 48.2205 13.9998 47.9217 13.9002C47.6228 13.8006 47.0551 13.5715 46.6566 13.3922L45.9295 13.0834L45.2223 13.5715C43.9771 14.4182 42.6125 15.1852 42.3435 15.1852C42.0746 15.1852 40.192 14.1094 39.2656 13.4321C38.7576 13.0635 38.7078 13.0436 38.4787 13.193Z" fill="#2E2E2E"/>
<path d="M1.38457 22.7754C1.36465 22.8451 1.06582 26.5108 0.727148 30.9235C0.398438 35.3362 0.0896484 39.1512 0.0597656 39.4102C0.0280306 39.6641 0.22599 39.8883 0.481846 39.8883H4.50234H6.99473C8.0993 39.8883 8.99473 38.9929 8.99473 37.8883V31.2721V24.6559C8.99473 23.5513 8.0993 22.6559 6.99473 22.6559H5.20957C2.26113 22.6559 1.41445 22.6858 1.38457 22.7754Z" fill="#2E2E2E"/>
<path d="M10.8877 31.1127V36.4959C10.8877 37.0411 11.3243 37.4858 11.8693 37.4958L13.0592 37.5176L15.2207 37.5574L18.0098 38.5635C25.8291 41.3824 26.1877 41.5119 26.9348 41.6116C28.3592 41.8008 27.9807 41.9701 39.4855 35.9936C45.2031 33.0252 50.0441 30.4752 50.2334 30.3358C51.0502 29.7082 51.2494 28.5826 50.6916 27.736C50.333 27.1881 49.5162 26.7897 48.8986 26.8594C48.6297 26.8893 45.9203 28.0746 41.5076 30.0867C37.6826 31.8299 34.2561 33.3539 33.8975 33.4834C33.25 33.7026 33.25 33.7026 26.9049 33.7125C23.4086 33.7125 20.5498 33.6727 20.5498 33.6229C20.5498 33.4237 21.3666 32.6367 21.8547 32.3678L22.3926 32.069L27.9209 32.0192C34.0768 31.9594 33.6584 32.0092 34.1764 31.2621C34.6346 30.5848 34.4553 29.6983 33.7779 29.2102L33.4492 28.9811L28.917 28.9313C24.9127 28.8914 24.3449 28.8616 24.0062 28.7121C23.7971 28.6125 22.0937 27.736 20.2211 26.7498C18.3484 25.7637 16.6152 24.917 16.3662 24.8573C16.1172 24.7975 14.7824 24.7477 13.4078 24.7477H11.8877C11.3354 24.7477 10.8877 25.1954 10.8877 25.7477V31.1127Z" fill="#2E2E2E"/>
</svg>
