<svg width="21" height="31" viewBox="0 0 21 31" fill="none" xmlns="http://www.w3.org/2000/svg">
<path d="M6.39124 0.0659237C6.09514 0.136423 4.34675 0.92602 2.49966 1.82137C0.969821 2.56161 0.462223 3.06216 0.123825 4.17605C-0.0101241 4.6202 -0.0171741 4.7753 0.0180757 5.86804C0.0956253 8.08878 0.398774 10.1967 0.983921 12.5867C2.26701 17.7966 4.62875 22.4002 8.20308 26.6725C9.07023 27.7159 11.3826 30.0353 11.9114 30.3878C12.701 30.9307 13.7796 31.1351 14.6397 30.9095C15.0627 30.7967 17.6782 29.6194 18.8485 29.0131C19.476 28.6888 20.181 28.0754 20.4982 27.5678C20.9917 26.7923 21.1398 25.7489 20.8789 24.8959C20.6392 24.1415 18.6864 20.0596 18.3691 19.6507C17.7981 18.9246 16.9098 18.4663 15.9298 18.4029C15.1896 18.3606 14.7877 18.4804 13.2509 19.1995L11.9466 19.8199L11.573 19.404C9.83867 17.5075 8.60493 14.892 8.22423 12.3117L8.12553 11.6561L8.62608 11.4093C8.90808 11.2754 9.54963 10.9652 10.0643 10.7255C10.8186 10.3659 11.0724 10.2038 11.4179 9.86537C12.3837 8.91363 12.701 7.46133 12.2004 6.20644C12.0383 5.80459 10.5507 2.62506 10.1841 1.89891C9.73293 0.996519 8.93628 0.340874 7.99863 0.0941238C7.54744 -0.0186749 6.81424 -0.0327759 6.39124 0.0659237Z" fill="white"/>
</svg>
