<svg width="50" height="50" viewBox="0 0 50 50" fill="none" xmlns="http://www.w3.org/2000/svg">
<path d="M23.2311 1.62019C16.6718 2.23513 11.0984 5.10482 6.98908 9.99499C4.29508 13.2063 2.48932 17.2766 1.7963 21.6885C1.55228 23.2307 1.55228 26.7446 1.7963 28.2869C2.5186 32.9038 4.32436 36.8667 7.27214 40.2927C11.0008 44.6363 16.2131 47.4279 22.0598 48.238C23.2604 48.404 26.7256 48.3943 27.9163 48.2283C34.7294 47.2912 40.5177 43.7481 44.3048 38.2137C48.8436 31.5762 49.6636 23.1624 46.4913 15.7246C44.7245 11.5762 41.6987 7.97449 37.8237 5.41716C34.6123 3.29906 30.9422 2.01062 27.0867 1.65923C26.0911 1.57138 24.0316 1.55186 23.2311 1.62019ZM38.2629 13.4601C38.624 13.6553 39.0437 14.3191 39.0437 14.7095C39.0437 15.0902 34.4756 35.7442 34.3195 36.0858C34.1242 36.5055 33.6557 36.7398 33.1384 36.6812C32.7772 36.6324 32.2794 36.2907 29.4 34.1141C27.5748 32.7281 26.0618 31.5958 26.0325 31.5861C26.0032 31.5861 25.1443 32.3767 24.1291 33.3527C22.7431 34.69 22.216 35.139 22.0305 35.139C21.5425 35.139 21.5425 35.0902 21.7768 31.7715L22.0012 28.6773L27.8383 23.3088C31.0496 20.3513 33.6753 17.872 33.6753 17.8037C33.6753 17.7354 33.6362 17.6573 33.5777 17.6183C33.5288 17.589 30.0052 19.6875 25.7592 22.2937L18.0286 27.018L14.7977 25.915C13.0213 25.3098 11.4888 24.7827 11.3912 24.7437C11.1765 24.6558 10.9324 24.197 10.9324 23.8847C10.9324 23.5919 11.2545 23.1721 11.5474 23.0746C11.7426 23.016 29.5367 16.2127 34.8954 14.1434C37.2868 13.2259 37.687 13.1478 38.2629 13.4601Z" fill="white"/>
</svg>
