<svg width="42" height="45" viewBox="0 0 42 45" fill="none" xmlns="http://www.w3.org/2000/svg">
<path d="M19.7912 4.54054C17.1688 15.2432 13.2351 19.0541 1.8439 21.9324L0 22.3784L4.09756 23.6757C14.1366 26.8784 17.2917 30.2432 19.8322 40.5811C20.4059 43.0135 20.9795 45 21.1024 45C21.2254 45 21.799 43.0135 22.3727 40.5811C24.9541 30.2027 28.601 26.3919 38.681 23.5135L42 22.5405L37.9434 21.2432C32.6166 19.5 30.199 18.2432 27.9454 16.0135C25.4868 13.6216 23.7249 9.93243 22.3727 4.41892C21.799 1.98648 21.2254 -1.54972e-06 21.1024 -1.54972e-06C20.9795 -1.54972e-06 20.4059 2.06756 19.7912 4.54054Z" fill="#FF4509"/>
</svg>
