<svg width="25" height="28" viewBox="0 0 25 28" fill="none" xmlns="http://www.w3.org/2000/svg">
<path d="M12.3434 3.37916C12.342 3.37348 12.3407 3.3678 12.3394 3.36213L12.7518 3.46218C12.6891 3.72019 12.6249 3.9727 12.559 4.21984C12.4857 3.94915 12.4145 3.67181 12.3454 3.38776L12.3454 3.38777L12.3434 3.37916ZM3.51139 14.008C6.15071 14.9159 8.08307 15.9277 9.53001 17.4928C10.9677 19.0479 11.8396 21.0557 12.5628 23.7724C13.3118 21.0186 14.2594 18.9473 15.7713 17.3528C17.2295 15.815 19.1319 14.8054 21.6449 13.9848C18.8376 13.0217 17.3362 12.2196 15.931 10.8191L3.51139 14.008Z" stroke="#FF4508" stroke-width="2"/>
</svg>
