<svg width="50" height="50" viewBox="0 0 50 50" fill="none" xmlns="http://www.w3.org/2000/svg">
<g clip-path="url(#clip0_370_495)">
<path d="M22.5843 0.0625627C14.7757 0.872714 7.93331 5.11869 3.77518 11.7365C-2.12038 21.107 -1.0174 33.4935 6.43013 41.6536C10.559 46.1728 15.7127 48.8767 21.9011 49.7551C23.0529 49.921 26.8889 49.9113 28.0993 49.7551C33.7508 48.9742 38.8069 46.4657 42.6527 42.5418C43.9216 41.2534 44.1851 40.9508 45.0246 39.8381C47.5234 36.5096 49.1534 32.4491 49.7878 28.0176C49.9538 26.8659 49.9538 23.0201 49.7878 21.8683C49.3682 18.9108 48.5971 16.3925 47.3769 13.923C46.069 11.3071 44.7415 9.44275 42.6624 7.34414C38.8069 3.43982 33.9851 1.00937 28.4408 0.189454C27.2403 0.0137584 23.7752 -0.0643285 22.5843 0.0625627ZM28.7825 9.94056C37.5184 12.0196 42.477 20.8434 39.6659 29.2963C38.9436 31.4828 37.7918 33.3081 36.0543 35.0553C33.8581 37.2612 31.4862 38.5496 28.3921 39.2036C27.5429 39.3891 27.0548 39.4281 25.5614 39.4281C23.0919 39.4379 21.5497 39.1157 19.3731 38.1592C18.8362 37.925 18.3286 37.7297 18.2408 37.7297C18.1627 37.7297 16.3862 38.1885 14.2876 38.7449C12.1988 39.2914 10.4712 39.7405 10.4613 39.7307C10.4419 39.7209 10.9104 37.9835 11.4862 35.8752L12.5404 32.0294L12.0817 31.0923C11.047 28.9938 10.5883 26.9928 10.5883 24.5526C10.598 20.3749 12.0719 16.8317 15.0197 13.9132C17.333 11.6194 20.2613 10.1944 23.6581 9.67701C23.824 9.65747 24.8098 9.64773 25.8542 9.66728C27.4745 9.69656 27.9138 9.73558 28.7825 9.94056Z" fill="white"/>
<path d="M24.4389 12.1757C19.656 12.5173 15.2832 15.9337 13.7507 20.531C13.2627 22.0146 13.126 22.8931 13.126 24.5525C13.126 27.0805 13.6043 28.7692 15.0293 31.2484L15.2539 31.6584L14.6487 33.8741C14.3168 35.0942 14.0533 36.1191 14.0826 36.1386C14.1021 36.1581 15.1367 35.9044 16.3862 35.5823L18.6604 34.9771L19.8415 35.5725C21.7839 36.5388 23.4725 36.9487 25.5711 36.9487C30.8127 36.9487 35.6053 33.4934 37.2646 28.4959C37.7624 26.9829 37.8893 26.2118 37.8893 24.5525C37.8893 23.3616 37.8405 22.8248 37.6746 22.0146C36.6106 17.0269 32.6867 13.2006 27.7087 12.3124C26.6448 12.1269 25.6589 12.0878 24.4389 12.1757ZM21.4813 17.8468C21.7936 18.1982 23.0528 21.3118 22.9845 21.5754C22.9552 21.6925 22.6624 22.1318 22.3403 22.5613C22.0181 22.981 21.7546 23.3909 21.7546 23.4788C21.7546 23.6643 22.5355 24.8258 23.1406 25.5383C23.7946 26.3094 25.0342 27.2465 26.0787 27.7833C27.3964 28.4373 27.4647 28.4373 28.2163 27.51C29.1534 26.368 29.2412 26.2899 29.4949 26.3583C29.7878 26.4461 32.5794 27.754 32.8722 27.9395C33.087 28.0761 33.0967 28.1347 33.0479 28.7399C33.0187 29.101 32.921 29.5793 32.8332 29.8038C32.6282 30.3114 31.8864 30.9946 31.1446 31.3558C30.6272 31.6096 30.5004 31.6291 29.4169 31.6291C28.3334 31.6291 28.1772 31.5998 27.3183 31.2972C25.903 30.7897 25.0245 30.37 23.9605 29.6574C21.9107 28.2909 19.4803 25.5481 18.4847 23.469C18.0553 22.5613 17.9186 21.878 17.9674 20.8433C18.0162 19.877 18.2602 19.2426 18.9045 18.4422C19.4315 17.7979 19.7829 17.6321 20.6126 17.6222C21.1885 17.6222 21.3056 17.6515 21.4813 17.8468Z" fill="white"/>
</g>
<defs>
<clipPath id="clip0_370_495">
<rect width="50" height="50" fill="white"/>
</clipPath>
</defs>
</svg>
